<?xml version="1.0" encoding="UTF-8" standalone="no"?>
<!-- Created with Inkscape (http://www.inkscape.org/) -->

<svg
   width="200mm"
   height="200mm"
   viewBox="0 0 200 200"
   version="1.1"
   id="svg5"
   inkscape:version="1.2.2 (732a01da63, 2022-12-09, custom)"
   sodipodi:docname="logo-base.svg"
   xmlns:inkscape="http://www.inkscape.org/namespaces/inkscape"
   xmlns:sodipodi="http://sodipodi.sourceforge.net/DTD/sodipodi-0.dtd"
   xmlns="http://www.w3.org/2000/svg"
   xmlns:svg="http://www.w3.org/2000/svg">
  <sodipodi:namedview
     id="namedview7"
     pagecolor="#ffffff"
     bordercolor="#666666"
     borderopacity="1.0"
     inkscape:showpageshadow="2"
     inkscape:pageopacity="0.0"
     inkscape:pagecheckerboard="0"
     inkscape:deskcolor="#d1d1d1"
     inkscape:document-units="mm"
     showgrid="false"
     inkscape:zoom="0.59969163"
     inkscape:cx="401.87321"
     inkscape:cy="416.04716"
     inkscape:window-width="1366"
     inkscape:window-height="704"
     inkscape:window-x="0"
     inkscape:window-y="0"
     inkscape:window-maximized="1"
     inkscape:current-layer="layer1" />
  <defs
     id="defs2" />
  <g
     inkscape:label="Layer 1"
     inkscape:groupmode="layer"
     id="layer1">
    <circle
       style="fill:#dddddd;stroke-width:0.379181;fill-opacity:1"
       id="path381"
       cx="100.35819"
       cy="100.28154"
       r="99.291313" />
    <path
       d="m 39.548061,103.38812 -1.488264,1.73631 q -3.968704,1.98435 -6.697188,-0.49609 -2.48044,-2.72848 -0.496088,-6.697184 8.185452,-10.417848 13.64242,-13.394376 1.736308,-6.2011 3.224572,-12.154156 1.736308,-5.953057 2.976528,-9.921761 1.24022,-4.216748 2.232396,-10.169804 0.744132,-5.705012 2.976528,-12.154156 4.712836,-16.122861 10.169805,-17.859169 2.976528,-0.496088 5.456968,2.48044 l 1.488264,3.72066 q 0.992176,3.224572 -0.496088,5.208925 -1.488264,1.736308 -3.968704,1.984352 -4.96088,15.378728 -12.402201,45.392053 5.208924,-0.248044 11.906113,0 6.945232,0.248044 13.146332,3.968704 6.2011,3.472616 9.673716,8.68154 3.472616,5.208924 3.224572,11.410022 0,6.2011 -5.705012,11.16198 -5.456968,4.96088 -12.650244,7.44132 -7.193276,2.48044 -15.130685,4.96088 -7.937408,2.2324 -18.851344,0 -9.92176,28.52506 -22.323961,46.88032 -2.728484,4.21675 -6.945232,1.48826 -3.7206599,-2.48044 -1.24022,-7.19327 16.370905,-23.81223 28.277017,-66.4758 z M 53.438525,91.233968 q -3.472616,12.650242 -8.433496,28.028972 11.16198,1.48826 19.347433,-1.48826 14.634596,-5.45697 20.091564,-13.89047 -2.48044,-8.18545 -12.4022,-11.658066 -9.425672,-3.472616 -18.603301,-0.992176 z"
       style="font-size:248.044px;line-height:1.25;font-family:Karumbi;-inkscape-font-specification:'Karumbi, Normal';fill:#ff2200;stroke-width:6.20106;fill-opacity:1"
       id="path3417" />
    <path
       d="m 107.01596,131.16905 q -3.22458,-7.68936 -2.72849,-18.6033 0.74413,-11.16198 1.24022,-16.618946 0.49609,-5.456968 -0.24804,-8.929584 -2.2324,-1.24022 -2.48044,-3.968704 -0.49609,-2.728484 1.24022,-3.968704 1.98435,-1.24022 2.23239,-1.24022 3.96871,-1.984352 6.94524,1.984352 3.72066,8.185452 1.24022,28.277016 -0.49609,4.96088 -0.49609,8.92958 11.16198,-17.115032 23.31614,-30.261364 8.68154,-9.177628 17.11503,-9.673716 4.21675,-0.248044 8.4335,-0.992176 4.46479,-0.992176 7.93741,0.992176 14.88264,8.929584 10.66589,29.51724 -1.73631,8.92958 -6.44915,16.86699 -7.9374,13.64242 -14.1385,14.88264 -2.2324,0.49609 -4.4648,0.99218 -2.23239,0.74413 -3.9687,-0.24805 -1.48826,-0.99217 -1.98435,-2.72848 -1.24022,-4.21675 3.22457,-5.95306 4.46479,-1.73631 8.18545,-5.95306 3.96871,-4.46479 6.44915,-9.92176 2.72848,-5.70501 3.72066,-11.41002 0.99217,-5.953056 -0.24805,-10.417848 -2.97653,-9.92176 -16.3709,-5.705012 -7.68937,2.232396 -13.14633,7.689364 -5.45697,5.456966 -9.92176,12.154156 -4.4648,6.44914 -8.68154,13.39438 -4.21675,6.69718 -9.42568,11.90611 -3.9687,2.2324 -7.19327,-0.99218 z"
       style="font-size:248.044px;line-height:1.25;font-family:Karumbi;-inkscape-font-specification:'Karumbi, Normal';fill:#ff2200;stroke-width:6.20106;fill-opacity:1"
       id="path3419" />
  </g>
</svg>
