<?xml version="1.0" encoding="UTF-8"?>
<svg width="200mm" height="200mm" version="1.1" viewBox="0 0 200 200" xmlns="http://www.w3.org/2000/svg">
 <g>
  <circle cx="100.4" cy="100.3" r="99.29" fill="#ddd" stroke-width=".3792"/>
  <path d="m39.55 103.4-1.488 1.736q-3.969 1.984-6.697-0.4961-2.48-2.728-0.4961-6.697 8.185-10.42 13.64-13.39 1.736-6.201 3.225-12.15 1.736-5.953 2.977-9.922 1.24-4.217 2.232-10.17 0.7441-5.705 2.977-12.15 4.713-16.12 10.17-17.86 2.977-0.4961 5.457 2.48l1.488 3.721q0.9922 3.225-0.4961 5.209-1.488 1.736-3.969 1.984-4.961 15.38-12.4 45.39 5.209-0.248 11.91 0 6.945 0.248 13.15 3.969 6.201 3.473 9.674 8.682t3.225 11.41q0 6.201-5.705 11.16-5.457 4.961-12.65 7.441t-15.13 4.961q-7.937 2.232-18.85 0-9.922 28.53-22.32 46.88-2.728 4.217-6.945 1.488-3.721-2.48-1.24-7.193 16.37-23.81 28.28-66.48zm13.89-12.15q-3.473 12.65-8.433 28.03 11.16 1.488 19.35-1.488 14.63-5.457 20.09-13.89-2.48-8.185-12.4-11.66-9.426-3.473-18.6-0.9922z" fill="#f20" stroke-width="6.201"/>
  <path d="m107 131.2q-3.225-7.689-2.728-18.6 0.7441-11.16 1.24-16.62 0.4961-5.457-0.248-8.93-2.232-1.24-2.48-3.969-0.4961-2.728 1.24-3.969 1.984-1.24 2.232-1.24 3.969-1.984 6.945 1.984 3.721 8.185 1.24 28.28-0.4961 4.961-0.4961 8.93 11.16-17.12 23.32-30.26 8.682-9.178 17.12-9.674 4.217-0.248 8.434-0.9922 4.465-0.9922 7.937 0.9922 14.88 8.93 10.67 29.52-1.736 8.93-6.449 16.87-7.937 13.64-14.14 14.88-2.232 0.4961-4.465 0.9922-2.232 0.7441-3.969-0.248-1.488-0.9922-1.984-2.728-1.24-4.217 3.225-5.953t8.185-5.953q3.969-4.465 6.449-9.922 2.728-5.705 3.721-11.41 0.9922-5.953-0.248-10.42-2.977-9.922-16.37-5.705-7.689 2.232-13.15 7.689-5.457 5.457-9.922 12.15-4.465 6.449-8.682 13.39-4.217 6.697-9.426 11.91-3.969 2.232-7.193-0.9922z" fill="#f20" stroke-width="6.201"/>
 </g>
</svg>
